<svg width="135" height="24" viewBox="0 0 135 24" fill="none" xmlns="http://www.w3.org/2000/svg">
<path d="M55.2805 9.03728C55.9566 7.72006 56.9546 6.88183 58.1942 6.31503C62.4681 4.36715 67.5067 7.09738 68.1426 11.7196C68.2231 12.3263 68.2472 12.941 68.2553 13.5477C68.2633 16.717 68.2633 19.8784 68.2633 23.0477C68.2633 23.2073 68.2472 23.359 68.2392 23.5426C67.4826 23.5426 66.7662 23.5426 66.0016 23.5426C65.9935 23.367 65.9694 23.1993 65.9694 23.0317C65.9694 19.8544 65.9774 16.6691 65.9613 13.4919C65.9613 12.8692 65.9131 12.2385 65.7762 11.6318C65.3577 9.71584 64.1986 8.39065 62.2911 7.87174C60.3915 7.35284 58.7817 7.99149 57.4778 9.42845C56.8178 10.1549 56.5844 11.057 56.4878 11.991C56.4315 12.5578 56.4073 13.1326 56.4073 13.6994C56.3993 16.7969 56.4073 19.9023 56.3993 22.9998C56.3993 23.1674 56.3832 23.3351 56.3751 23.5346C55.6185 23.5346 54.9022 23.5346 54.1456 23.5346C54.1375 23.351 54.1134 23.1834 54.1134 23.0237C54.1134 19.7506 54.1134 16.4775 54.1134 13.2045C54.1134 11.5041 53.6224 10.0032 52.2943 8.85367C50.9582 7.68813 49.4128 7.40872 47.7547 7.98351C45.984 8.59821 44.9859 9.88349 44.7364 11.7276C44.6559 12.3024 44.6318 12.8931 44.6318 13.4759C44.6237 16.6452 44.6237 19.8065 44.6237 22.9758C44.6237 23.1594 44.6076 23.3351 44.5915 23.5426C43.8108 23.5426 43.0622 23.5426 42.2734 23.5426C42.2734 17.7389 42.2734 11.9511 42.2734 6.13142C43.0059 6.13142 43.7222 6.13142 44.511 6.13142C44.511 6.71419 44.511 7.30494 44.511 7.88771C45.9598 5.99571 47.9077 5.49277 50.1211 5.72428C52.3426 5.95579 54.0329 7.0894 55.2805 9.03728Z" fill="white" fill-opacity="0.4"/>
<path d="M110.979 23.5422C110.279 23.5422 109.602 23.5422 108.854 23.5422C108.854 22.5523 108.854 21.5864 108.854 20.6763C108.282 21.2032 107.727 21.746 107.139 22.233C105.28 23.7657 103.083 24.1809 100.757 23.9334C96.7 23.4943 93.5287 20.6284 92.6353 16.7007C91.8385 13.1721 93.3356 9.38815 96.4183 7.34447C99.4205 5.34869 102.608 5.11718 105.9 6.59406C106.978 7.08103 107.84 7.86337 108.733 8.83731C108.733 7.26464 108.733 5.81171 108.733 4.36677C108.733 2.92182 108.733 1.47688 108.733 0C109.514 0 110.23 0 110.987 0C110.979 7.83144 110.979 15.6549 110.979 23.5422ZM108.822 14.7847C108.814 10.8331 105.667 7.71169 101.698 7.71169C97.9395 7.71169 94.72 10.9369 94.72 14.7129C94.728 18.7204 97.8993 21.9695 101.803 21.9695C105.642 21.9616 108.83 18.7044 108.822 14.7847Z" fill="white" fill-opacity="0.4"/>
<path d="M80.7958 23.9973C75.6525 23.9734 71.6361 19.87 71.6603 14.6651C71.6844 9.75544 75.9503 5.63615 80.9728 5.67607C85.9149 5.71598 90.0681 9.95502 90.0359 14.9285C90.0037 19.878 85.7861 24.0213 80.7958 23.9973ZM87.7581 14.7369C87.7339 14.4415 87.7178 14.1382 87.6937 13.8348C87.3395 9.73947 82.5585 6.23489 78.0591 8.34243C74.9845 9.78737 73.423 12.9886 74.1313 16.5012C74.9845 20.7163 79.6689 23.1751 83.6048 21.3789C86.4139 20.0936 87.6776 17.7625 87.7581 14.7369Z" fill="white" fill-opacity="0.4"/>
<path d="M123.623 23.9971C118.512 23.9652 114.487 19.8379 114.528 14.6729C114.568 9.74729 118.818 5.64397 123.832 5.68388C128.766 5.7238 132.952 9.99476 132.903 14.9363C132.863 19.9098 128.645 24.0291 123.623 23.9971ZM130.601 15.4951C130.617 13.0603 130.11 11.5515 129 10.2343C126.617 7.41622 122.738 6.87337 119.759 9.04477C117.216 10.9048 116.419 13.4754 116.999 16.493C117.804 20.6682 122.496 23.1509 126.392 21.4106C129.241 20.1413 130.537 17.8102 130.601 15.4951Z" fill="white" fill-opacity="0.4"/>
<path d="M15.5978 18.4574C16.4912 18.4574 17.3364 18.4574 18.1976 18.4574C16.8695 21.7784 13.0785 24.5805 8.20892 23.8939C3.25884 23.1994 -0.113647 19.2318 0.103674 14.3781C0.312945 9.73988 4.19252 5.9479 8.98966 5.68445C14.0524 5.40505 17.3847 8.734 18.2057 11.3684C17.3444 11.3684 16.4912 11.3684 15.622 11.3684C14.2939 9.30879 12.5231 7.87981 9.95553 7.72813C7.88696 7.60839 6.06791 8.27897 4.54667 9.66803C1.61687 12.3424 1.61687 17.2121 4.53862 19.9982C6.19669 21.5788 8.18477 22.1536 10.4465 21.8982C12.7726 21.6427 14.2858 20.2137 15.5978 18.4574Z" fill="white" fill-opacity="0.4"/>
<path d="M29.5714 5.7154C29.5714 6.37001 29.5714 7.00068 29.5714 7.66328C29.4909 7.67924 29.4105 7.70319 29.338 7.71118C25.1767 8.1263 22.4562 11.3195 22.746 15.4708C23.0438 19.7338 26.9475 22.6715 31.149 21.7934C33.8776 21.2266 36.1313 18.664 36.4371 15.83C36.582 14.4809 36.4774 13.1796 35.9623 11.9103C35.9381 11.8544 35.9301 11.7826 35.9059 11.6788C36.6786 11.6788 37.4191 11.6788 38.1596 11.6788C39.383 14.3531 38.9725 18.4245 35.9784 21.3942C33.0888 24.2602 28.2675 24.819 24.9111 22.7115C21.0396 20.2686 19.4701 15.9258 20.9833 11.7107C22.3516 7.89479 26.2392 5.59565 29.5714 5.7154Z" fill="white" fill-opacity="0.2"/>
<path d="M39.592 0.0963678C39.3103 0.830815 39.0447 1.52535 38.7871 2.20391C36.0022 2.65097 33.9336 4.01608 32.7746 6.65051C32.1468 6.41101 31.5431 6.18749 30.9395 5.95598C31.9053 2.73878 35.8251 -0.0872439 39.592 0.0963678Z" fill="white" fill-opacity="0.2"/>
</svg>
