<svg width="135" height="24" viewBox="0 0 135 24" fill="none" xmlns="http://www.w3.org/2000/svg">
<path class="logo-letters --hover" d="M55.2795 9.03679C55.9556 7.71957 56.9537 6.88135 58.1932 6.31454C62.4671 4.36666 67.5058 7.09689 68.1416 11.7191C68.2221 12.3258 68.2463 12.9405 68.2543 13.5473C68.2624 16.7166 68.2624 19.8779 68.2624 23.0472C68.2624 23.2068 68.2463 23.3585 68.2382 23.5421C67.4816 23.5421 66.7653 23.5421 66.0006 23.5421C65.9926 23.3665 65.9684 23.1989 65.9684 23.0312C65.9684 19.8539 65.9765 16.6687 65.9604 13.4914C65.9604 12.8687 65.9121 12.238 65.7752 11.6313C65.3567 9.71535 64.1977 8.39016 62.2901 7.87125C60.3905 7.35235 58.7808 7.991 57.4768 9.42796C56.8168 10.1544 56.5834 11.0565 56.4868 11.9905C56.4305 12.5573 56.4063 13.1321 56.4063 13.6989C56.3983 16.7964 56.4063 19.9018 56.3983 22.9993C56.3983 23.1669 56.3822 23.3346 56.3741 23.5341C55.6175 23.5341 54.9012 23.5341 54.1446 23.5341C54.1365 23.3505 54.1124 23.1829 54.1124 23.0232C54.1124 19.7501 54.1124 16.4771 54.1124 13.204C54.1124 11.5036 53.6214 10.0027 52.2933 8.85318C50.9572 7.68764 49.4118 7.40823 47.7538 7.98302C45.983 8.59772 44.9849 9.883 44.7354 11.7271C44.6549 12.3019 44.6308 12.8926 44.6308 13.4754C44.6227 16.6447 44.6227 19.806 44.6227 22.9753C44.6227 23.1589 44.6066 23.3346 44.5905 23.5421C43.8098 23.5421 43.0613 23.5421 42.2725 23.5421C42.2725 17.7384 42.2725 11.9506 42.2725 6.13093C43.0049 6.13093 43.7213 6.13093 44.5101 6.13093C44.5101 6.7137 44.5101 7.30445 44.5101 7.88722C45.9589 5.99522 47.9067 5.49228 50.1201 5.72379C52.3416 5.9553 54.0319 7.08891 55.2795 9.03679Z" fill="black"/>
<path class="logo-letters --hover" d="M110.978 23.5422C110.278 23.5422 109.601 23.5422 108.853 23.5422C108.853 22.5523 108.853 21.5864 108.853 20.6763C108.281 21.2032 107.726 21.746 107.138 22.233C105.279 23.7657 103.082 24.1809 100.756 23.9334C96.699 23.4943 93.5277 20.6284 92.6343 16.7007C91.8375 13.1721 93.3346 9.38815 96.4173 7.34447C99.4196 5.34869 102.607 5.11718 105.899 6.59406C106.977 7.08103 107.839 7.86337 108.732 8.83731C108.732 7.26464 108.732 5.81171 108.732 4.36677C108.732 2.92182 108.732 1.47688 108.732 0C109.513 0 110.229 0 110.986 0C110.978 7.83144 110.978 15.6549 110.978 23.5422ZM108.821 14.7847C108.813 10.8331 105.666 7.71169 101.697 7.71169C97.9386 7.71169 94.719 10.9369 94.719 14.7129C94.727 18.7204 97.8983 21.9695 101.802 21.9695C105.641 21.9616 108.829 18.7044 108.821 14.7847Z" fill="black"/>
<path class="logo-letters --hover" d="M80.7948 23.9971C75.6515 23.9731 71.6351 19.8698 71.6593 14.6648C71.6834 9.7552 75.9494 5.63591 80.9719 5.67582C85.9139 5.71574 90.0671 9.95477 90.0349 14.9283C90.0027 19.8778 85.7851 24.021 80.7948 23.9971ZM87.7571 14.7367C87.7329 14.4413 87.7168 14.1379 87.6927 13.8346C87.3385 9.73923 82.5575 6.23464 78.0582 8.34218C74.9835 9.78713 73.422 12.9884 74.1303 16.5009C74.9835 20.716 79.6679 23.1748 83.6039 21.3786C86.4129 20.0933 87.6766 17.7623 87.7571 14.7367Z" fill="black"/>
<path class="logo-letters --hover" d="M123.623 23.9971C118.512 23.9652 114.487 19.8379 114.528 14.6729C114.568 9.74729 118.818 5.64397 123.832 5.68388C128.766 5.7238 132.952 9.99476 132.903 14.9363C132.863 19.9098 128.645 24.0291 123.623 23.9971ZM130.601 15.4951C130.617 13.0603 130.11 11.5515 129 10.2343C126.617 7.41622 122.738 6.87337 119.759 9.04477C117.216 10.9048 116.419 13.4754 116.999 16.493C117.804 20.6682 122.496 23.1509 126.392 21.4106C129.241 20.1413 130.537 17.8102 130.601 15.4951Z" fill="black"/>
<path class="logo-letters --hover" d="M15.5988 18.457C16.4922 18.457 17.3373 18.457 18.1986 18.457C16.8705 21.7779 13.0795 24.58 8.20989 23.8935C3.25982 23.1989 -0.11267 19.2313 0.10465 14.3776C0.313922 9.73939 4.19349 5.94741 8.99064 5.68397C14.0534 5.40456 17.3856 8.73352 18.2066 11.3679C17.3454 11.3679 16.4922 11.3679 15.6229 11.3679C14.2949 9.3083 12.5241 7.87932 9.95651 7.72764C7.88794 7.6079 6.06889 8.27848 4.54764 9.66754C1.61784 12.3419 1.61784 17.2116 4.5396 19.9977C6.19767 21.5784 8.18575 22.1531 10.4475 21.8977C12.7736 21.6422 14.2868 20.2132 15.5988 18.457Z" fill="black"/>
<path class="logo-letters --hover" d="M29.5714 5.71589C29.5714 6.3705 29.5714 7.00117 29.5714 7.66377C29.4909 7.67973 29.4105 7.70368 29.338 7.71167C25.1767 8.12679 22.4562 11.32 22.746 15.4713C23.0438 19.7342 26.9475 22.672 31.149 21.7939C33.8776 21.2271 36.1313 18.6645 36.4371 15.8305C36.582 14.4813 36.4774 13.1801 35.9623 11.9108C35.9381 11.8549 35.9301 11.7831 35.9059 11.6793C36.6786 11.6793 37.4191 11.6793 38.1596 11.6793C39.383 14.3536 38.9725 18.425 35.9784 21.3947C33.0888 24.2607 28.2675 24.8195 24.9111 22.7119C21.0396 20.2691 19.4701 15.9263 20.9833 11.7112C22.3516 7.89528 26.2392 5.59614 29.5714 5.71589Z" fill="#807F80"/>
<path class="logo-letters" d="M39.592 0.0958795C39.3103 0.830326 39.0447 1.52486 38.7871 2.20342C36.0022 2.65048 33.9336 4.01559 32.7746 6.65002C32.1468 6.41053 31.5431 6.187 30.9395 5.95549C31.9053 2.73829 35.8251 -0.0877322 39.592 0.0958795Z" fill="#807F80"/>
</svg>
